<svg xmlns="http://www.w3.org/2000/svg" width="636.9577" height="378.6354" viewBox="0 0 168.5284 100.1806" xmlns:v="https://vecta.io/nano"><g fill="#cb3c33"><path d="M49.205 14.1326v9.9999h27.4727c.075-.2395.1613-.4751.261-.6966.3314-.7365.7702-1.4779 1.4454-2.5275l4.6431-6.7758z"/><path d="M54.205 19.1324c0 2.7614-2.2386 5-5 5s-5-2.2386-5-5 2.2386-5 5-5 5 2.2386 5 5z"/></g><g fill="#389826"><path d="M28.0807 34.1293v10.0004h56.844l9.6341-10.0004z"/><circle cx="28.0807" cy="39.1296" r="5"/></g><g fill="#9558b2"><path d="M4.9999 55.6645v9.9999h60.326l9.0832-9.9999z"/><circle cx="5" cy="60.6646" r="5"/></g><path d="M98.7183 3.2717c.1111-.0254.2545.0936.9219.1543.2727.0248.2248-.0658 1.9023 1.002s4.6166 3.1354 9.834 6.8594l8.6113 6.2637 4.2949 3.3105c1.1532 1.1 1.489 2.235 1.4043 3.1953s-.5458 1.8338-1.7676 2.543c-.8725.5065-.3016.3809-2.0312.291-.8668-.045-2.6361-.5723-2.3398-.4238.5144.2578-.1312-.0987-.6621-.5019s-1.2559-.9738-2.1035-1.6562l-6.1445-5.0996-5.9316-4.9941-1.8789-1.541-.5879-.4629-.2656-.1934-.2461-.1543c-.0664-.0381-.1465-.0856-.3145-.1582a2.798 2.798 0 0 0-.3594-.1289 2.956 2.956 0 0 0-.3223-.0742c-.1332-.0232-.5152-.0449-.5156-.0449s-.417.0236-.5684.0527a2.908 2.908 0 0 0-.3711.0977 2.828 2.828 0 0 0-.4258.1758c-.1997.1014-.2961.1689-.373.2227-.1538.1074-.2151.1647-.2734.2148l-.2578.2383-.502.5098-1.5371 1.6445-4.8008 5.2969-6.9355 7.1777c-.4456.3129-.3386.1803-.1465.1816s.0943.0367-.4492-.2363c-.1376-.0691-.5918-.4374-.8691-.8262-.23-.3224-.2403-.4802-.2539-.3809.1161-.2479.4004-.7731.9785-1.6719 1.2065-1.8755 3.5353-5.2107 7.7246-11.1426 3.6859-5.2192 5.7625-7.9868 6.8359-9.0254.5367-.5193.6154-.6894.7266-.7148z" vector-effect="non-scaling-stroke" fill="none" stroke="#fff" stroke-width=".0026"/><path d="M139.9806 23.6682c-3.2299-1.0684-5.6627-3.1576-7.2349-6.213-1.3068-2.5398-1.5077-6.9532-.4447-9.7725.9887-2.6225 3.3997-5.2789 5.9024-6.5034 2.7709-1.3556 6.8637-1.5684 9.6866-.5035 2.2452.847 4.8825 2.9982 6.1636 5.0277 1.2648 2.0036 2.0239 5.3368 1.7486 7.6788-.8944 7.6101-8.6561 12.6561-15.8216 10.2859z" fill="#4063d8"/><path d="M47.6215 99.3794c-2.489-1.6773-3.5155-4.7327-2.3162-6.8942.2494-.4495 9.1734-10.4169 19.8312-22.15L78.134 56.0264s1.9205-1.8962 4.1148-4.527c1.0746-1.2884 2.487-.2759 2.7751.5739.7482 2.2071 1.1909 2.7481 2.282 4.1786.4566.5986 2.2775 2.1848 4.0464 3.5247s3.5436 2.7184.1713 5.6402-37.3311 33.7575-38.2302 34.2533c-1.4302.7886-4.2877.6421-5.6721-.2908zm38.124-13.0444c-1.8137-1.2344-2.5644-2.4957-2.7391-4.602-.1658-1.9993.3248-3.4281 1.5616-4.5473.3602-.326 5.5507-2.5276 11.5344-4.8925 9.912-3.9174 9.9927-2.7298 10.7433-4.8567s-4.0375-3.4497-8.8174-6.572c-9.9145-6.4763-9.9902-7.9336-9.9791-12.1609.005-1.9038.4255-2.9959.8881-3.8751.6174-1.0857 5.1596-5.8127 10.0142-10.6012 4.4831-4.422 6.2491-6.7571 8.237-7.254 1.0827-.2706 2.5016-.5264 4.5763 1.3415s5.1745 3.4696 5.9993 3.8421c3.2712 1.4776 6.4312 1.1909 9.4817-.8601 2.4602-1.6542 3.7086-3.87 3.9309-6.9776 0 0-.006-.9053.5012-1.4748.4407-.4945 1.5248 1.0104 1.5248 1.0104.7625.934 2.1134 3.3998 1.1747 6.1594-1.0901 3.2048-1.6663 3.6886-20.3167 17.0592-4.3187 3.0961-4.3202 3.0977-3.7042 3.895.339.4387 3.6325 4.164 7.3191 8.2784s6.9764 8.0626 7.3109 8.7737c1.741 3.7016-.4406 8.4098-4.4887 9.6871-11.6586 3.6788-31.3706 9.421-32.3406 9.421-.7107 0-1.746-.3408-2.4116-.7937zm54.8163-39.2988c-.6395-.0644-1.602-.3629-2.1387-.6634-.8553-.4788-6.4037-5.1517-7.2974-6.1025-.4709-.5011-.8703-1.7465-.1616-2.5073l5.9444-5.8546c.9784-1.0759 2.1343-.3328 3.5086.8804 1.0938.9657 2.8579 2.6693 3.1177 2.621 1.8135-.3365 4.6994-1.8718 10.4337-3.5562 11.755-3.4531 10.6301-4.8718 13.5089-1.3036.6644.8235.8745 1.7717.9721 2.769.3787 3.8666-.2811 3.0829-9.4371 6.8402-15.8217 6.4926-17.1925 7.0035-18.4507 6.8769zM82.2284 29.7136c-1.4669-.737-2.8293-2.6466-2.8293-3.9657 0-1.1617.9216-2.5943 9.306-14.4664C96.0931.8205 96.782.1539 99.9117.4385c1.4797.1346 2.7626.9511 13.2077 8.4065 6.3628 4.5416 12.3177 8.9718 13.2331 9.8449 3.4668 3.3069 3.035 8.2043-.9262 10.5037-1.1857.6281-1.8009.7857-3.6937.6939-1.3273-.0644-2.4419-.2241-3.5278-.738-3.6783-1.7408-4.9583-3.7855-9.5094-7.6559-8.6587-6.8855-8.0334-7.7213-15.352.4168-7.7033 8.6118-8.4551 9.1396-11.1149 7.8032z"/></svg>