<svg xmlns="http://www.w3.org/2000/svg" width="1280" height="640" xmlns:v="https://vecta.io/nano"><text xml:space="preserve" style="white-space:pre" x="133.466" y="203.072" transform="matrix(2.630414 0 0 2.630414 -278.43493 -392.12059)" font-size="36.496" font-family="sans-serif" fill="#000"><tspan x="133.466" y="203.072"><tspan font-weight="bold" font-family="Courier 10 Pitch">PkgJogger.jl</tspan></tspan></text><text xml:space="preserve" style="white-space:pre" x="50.624" y="510.312" font-size="40" font-family="sans-serif" fill="#000"><tspan x="76.478" y="196.788"><tspan font-style="italic" font-weight="bold" font-family="Courier 10 Pitch" x="76.478" y="196.788">Take your packages for a jog!</tspan></tspan></text><g transform="matrix(3.441868 0 0 3.441868 619.25663 218.20196)"><g fill="#cb3c33"><path d="M49.205 14.133v10h27.473a6.27 6.27 0 0 1 .261-.697c.331-.736.77-1.478 1.445-2.527l4.643-6.776z"/><path d="M54.205 19.132a5 5 0 1 1-10 0 5 5 0 1 1 10 0z"/></g><g fill="#389826"><path d="M28.081 34.129v10h56.844l9.634-10z"/><circle cx="28.081" cy="39.13" r="5"/></g><g fill="#9558b2"><path d="M5 55.665v10h60.326l9.083-10z"/><circle cx="5" cy="60.665" r="5"/></g><path d="M98.718 3.272c.111-.025.254.094.922.154.273.025.225-.066 1.902 1.002s4.617 3.135 9.834 6.859l8.611 6.264 4.295 3.311c1.153 1.1 1.489 2.235 1.404 3.195s-.546 1.834-1.768 2.543c-.873.506-.302.381-2.031.291-.867-.045-2.636-.572-2.34-.424.514.258-.131-.099-.662-.502s-1.256-.974-2.103-1.656l-6.144-5.1-5.932-4.994-1.879-1.541-.588-.463-.266-.193-.246-.154c-.066-.038-.147-.086-.314-.158a2.798 2.798 0 0 0-.359-.129 2.956 2.956 0 0 0-.322-.074c-.133-.023-.515-.045-.516-.045s-.417.024-.568.053a2.908 2.908 0 0 0-.371.098 2.828 2.828 0 0 0-.426.176c-.2.101-.296.169-.373.223-.154.107-.215.165-.273.215l-.258.238-.502.51-1.537 1.645-4.801 5.297-6.936 7.178c-.446.313-.339.18-.147.182s.094.037-.449-.236c-.138-.069-.592-.437-.869-.826-.23-.322-.24-.48-.254-.381.116-.248.4-.773.978-1.672 1.207-1.875 3.535-5.211 7.725-11.143 3.686-5.219 5.763-7.987 6.836-9.025.537-.519.615-.689.727-.715z" vector-effect="non-scaling-stroke" fill="none" stroke="#fff" stroke-width=".003"/><path d="M139.981 23.668c-3.23-1.068-5.663-3.158-7.235-6.213-1.307-2.54-1.508-6.953-.445-9.772.989-2.623 3.4-5.279 5.902-6.503 2.771-1.356 6.864-1.568 9.687-.503 2.245.847 4.882 2.998 6.164 5.028 1.265 2.004 2.024 5.337 1.749 7.679-.894 7.61-8.656 12.656-15.822 10.286z" fill="#4063d8"/><path d="M47.622 99.379c-2.489-1.677-3.516-4.733-2.316-6.894.249-.45 9.173-10.417 19.831-22.15l12.998-14.309s1.921-1.896 4.115-4.527c1.075-1.288 2.487-.276 2.775.574.748 2.207 1.191 2.748 2.282 4.179.457.599 2.278 2.185 4.046 3.525s3.544 2.718.171 5.64-37.331 33.758-38.23 34.253c-1.43.789-4.288.642-5.672-.291zm38.124-13.044c-1.814-1.234-2.564-2.496-2.739-4.602-.166-1.999.325-3.428 1.562-4.547.36-.326 5.551-2.528 11.534-4.892 9.912-3.917 9.993-2.73 10.743-4.857s-4.037-3.45-8.817-6.572c-9.915-6.476-9.99-7.934-9.979-12.161.005-1.904.425-2.996.888-3.875.617-1.086 5.16-5.813 10.014-10.601 4.483-4.422 6.249-6.757 8.237-7.254 1.083-.271 2.502-.526 4.576 1.342s5.174 3.47 5.999 3.842c3.271 1.478 6.431 1.191 9.482-.86 2.46-1.654 3.709-3.87 3.931-6.978 0 0-.006-.905.501-1.475.441-.494 1.525 1.01 1.525 1.01.762.934 2.113 3.4 1.175 6.159-1.09 3.205-1.666 3.689-20.317 17.059-4.319 3.096-4.32 3.098-3.704 3.895.339.439 3.632 4.164 7.319 8.278s6.976 8.063 7.311 8.774c1.741 3.702-.441 8.41-4.489 9.687-11.659 3.679-31.371 9.421-32.341 9.421-.711 0-1.746-.341-2.412-.794zm54.816-39.299a6.58 6.58 0 0 1-2.139-.663c-.855-.479-6.404-5.152-7.297-6.102-.471-.501-.87-1.746-.162-2.507l5.944-5.855c.978-1.076 2.134-.333 3.509.88 1.094.966 2.858 2.669 3.118 2.621 1.814-.337 4.699-1.872 10.434-3.556 11.755-3.453 10.63-4.872 13.509-1.304.664.823.875 1.772.972 2.769.379 3.867-.281 3.083-9.437 6.84-15.822 6.493-17.192 7.004-18.451 6.877zM82.228 29.714c-1.467-.737-2.829-2.647-2.829-3.966 0-1.162.922-2.594 9.306-14.466C96.093.821 96.782.154 99.912.439c1.48.135 2.763.951 13.208 8.407 6.363 4.542 12.318 8.972 13.233 9.845 3.467 3.307 3.035 8.204-.926 10.504-1.186.628-1.801.786-3.694.694-1.327-.064-2.442-.224-3.528-.738-3.678-1.741-4.958-3.785-9.509-7.656-8.659-6.885-8.033-7.721-15.352.417-7.703 8.612-8.455 9.14-11.115 7.803z"/></g></svg>